<?xml version="1.0" encoding="utf-8"?>
<!-- Generator: Adobe Illustrator 24.2.3, SVG Export Plug-In . SVG Version: 6.00 Build 0)  -->
<svg version="1.1" id="Layer_1" xmlns="http://www.w3.org/2000/svg" xmlns:xlink="http://www.w3.org/1999/xlink" x="0px" y="0px"
	 viewBox="0 0 1000 1000" style="enable-background:new 0 0 1000 1000;" xml:space="preserve">
<style type="text/css">
	.st0{fill:#512E91;}
	.st1{font-family:'Cloud-Regular';}
	.st2{font-size:128.8273px;}
	.st3{fill:url(#SVGID_1_);}
	.st4{fill:url(#SVGID_2_);}
	.st5{fill:url(#SVGID_3_);}
	.st6{font-family:'Poppins-SemiBold';}
	.st7{font-size:36.7302px;}
</style>
<g>
	<g>
		<text transform="matrix(0.85 0 0 0.98 281.6283 536.2822)" class="st0 st1 st2">Quantumberg</text>
	</g>
	<g>
		<linearGradient id="SVGID_1_" gradientUnits="userSpaceOnUse" x1="80.4021" y1="488.7057" x2="256.9865" y2="488.7057">
			<stop  offset="0" style="stop-color:#3C3C98"/>
			<stop  offset="0.0411" style="stop-color:#443D98"/>
			<stop  offset="0.5146" style="stop-color:#8F4299"/>
			<stop  offset="0.8442" style="stop-color:#BB469A"/>
			<stop  offset="1" style="stop-color:#CC499A"/>
		</linearGradient>
		<path class="st3" d="M235.09,426.02c-0.06-0.06-0.11-0.11-0.17-0.14c-6.72-7.33-14.68-13.44-23.59-18.03
			c-11.56-5.95-24.64-9.32-38.52-9.32h-8.27c-46.46,0-84.14,37.66-84.14,84.14v32.08c0,19.14,8.35,36.33,21.68,48.06
			c7.69,6.77,16.98,11.75,27.24,14.24c4.87,1.19,9.98,1.83,15.24,1.83h75.05c3.62,0,6.58-2.93,6.58-6.58v-1.94v-15.68
			c0-0.69,0.11-1.35,0.3-1.99c0.86-2.68,3.35-4.62,6.28-4.62h15.15h2.46c3.65,0,6.61-2.93,6.61-6.58v-58.82
			C256.99,460.86,248.66,441.01,235.09,426.02z M230.08,521.2h-16.45c-1.74,0-3.43,0.3-4.95,0.88c-2.21,0.8-4.18,2.16-5.72,3.87
			c-2.3,2.54-3.68,5.92-3.68,9.59V552h-54.72c-1.77,0-3.51-0.14-5.23-0.39c-6.8-0.94-13.02-3.73-18.11-7.85
			c-8.49-6.83-13.94-17.28-13.94-29.01v-32.08c0-17.95,8.27-33.96,21.21-44.41c1.66-1.35,3.4-2.6,5.2-3.76
			c8.9-5.75,19.49-9.07,30.86-9.07h8.27c10.34,0,20.05,2.76,28.43,7.6c0,0,0.03,0,0.06,0.03c5.53,3.15,10.45,7.22,14.63,11.97
			c8.82,10.04,14.16,23.23,14.16,37.63V521.2z"/>
		<linearGradient id="SVGID_2_" gradientUnits="userSpaceOnUse" x1="136.4658" y1="488.7057" x2="200.9228" y2="488.7057">
			<stop  offset="0" style="stop-color:#3C3C98"/>
			<stop  offset="0.0411" style="stop-color:#443D98"/>
			<stop  offset="0.5146" style="stop-color:#8F4299"/>
			<stop  offset="0.8442" style="stop-color:#BB469A"/>
			<stop  offset="1" style="stop-color:#CC499A"/>
		</linearGradient>
		<path class="st4" d="M197.48,469.21c-1.3-2.4-2.98-4.54-4.96-6.39c-4.77-4.54-11.26-7.33-18.39-7.33h-10.87
			c-14.79,0-26.79,12-26.79,26.79v23.36c0,9.02,7.3,16.28,16.32,16.28h3.44h26.83c0.94,0,1.72-0.75,1.72-1.72v-12.72
			c0-0.94,0.78-1.72,1.72-1.72h14.44v-23.49C200.92,477.55,199.69,473.07,197.48,469.21z"/>
		<linearGradient id="SVGID_3_" gradientUnits="userSpaceOnUse" x1="235.5039" y1="575.384" x2="272.5817" y2="575.384">
			<stop  offset="0" style="stop-color:#3C3C98"/>
			<stop  offset="0.0411" style="stop-color:#443D98"/>
			<stop  offset="0.5146" style="stop-color:#8F4299"/>
			<stop  offset="0.8442" style="stop-color:#BB469A"/>
			<stop  offset="1" style="stop-color:#CC499A"/>
		</linearGradient>
		<path class="st5" d="M260.53,593.92H238.3c-1.54,0-2.79-1.25-2.79-2.79v-28.2c0-3.36,2.72-6.08,6.08-6.08h28.2
			c1.54,0,2.79,1.25,2.79,2.79v22.24C272.58,588.53,267.19,593.92,260.53,593.92z"/>
	</g>
	<g>
		<text transform="matrix(1 0 0 1 385.2954 579.6855)" class="st0 st6 st7">TECHNOLOGIES PVT LTD</text>
	</g>
</g>
</svg>
